<?xml version="1.0" standalone="no"?><!DOCTYPE svg PUBLIC "-//W3C//DTD SVG 1.1//EN" "http://www.w3.org/Graphics/SVG/1.1/DTD/svg11.dtd"><svg t="1774613798063" class="icon" viewBox="0 0 1062 1024" version="1.1" xmlns="http://www.w3.org/2000/svg" p-id="3852" xmlns:xlink="http://www.w3.org/1999/xlink" width="207.421875" height="200"><path d="M528 180.5824c9.8304 33.3696 41.2288 54.9632 74.5984 54.9632h317.9904c0-43.1872-35.328-78.5152-78.5152-78.5152h-321.92l7.8592 23.552z m-31.3984-102.0672h345.472c86.3616 0 157.0304 70.656 157.0304 157.0304v31.3984c37.2864 29.44 62.8096 74.5984 62.8096 125.632v471.0784c0 86.3744-70.656 157.0304-157.0304 157.0304H157.0304C70.656 1020.6848 0 950.0288 0 863.6544V157.0304C0 70.656 70.656 0 157.0304 0h202.176c56.9216 0 109.9136 31.4112 137.3952 78.5152z m-142.1312-12.5056H146.7008c-44.3776 0-80.6912 36.352-80.6912 80.7936v727.0784c0 44.4416 36.3136 80.7936 80.6912 80.7936h766.5408c44.3776 0 80.6912-36.352 80.6912-80.7936V389.1584c0-44.416-36.3136-80.7808-80.6912-80.7808H608.64c-70.592 0-133.12-46.464-153.3056-113.1008l-24.2048-72.704c-10.0864-34.3424-40.3456-56.5632-76.6592-56.5632z m-118.9248 679.8848h314.0608a39.3728 39.3728 0 0 1 39.2576 39.2448 39.3728 39.3728 0 0 1-39.2576 39.2576H235.5456a39.3728 39.3728 0 0 1-39.2576-39.2576 39.3728 39.3728 0 0 1 39.2576-39.2448z" fill="#e6720e" p-id="3853"></path></svg>