<?xml version="1.0" standalone="no"?><!DOCTYPE svg PUBLIC "-//W3C//DTD SVG 1.1//EN" "http://www.w3.org/Graphics/SVG/1.1/DTD/svg11.dtd"><svg t="1774533802644" class="icon" viewBox="0 0 1024 1024" version="1.1" xmlns="http://www.w3.org/2000/svg" p-id="38644" xmlns:xlink="http://www.w3.org/1999/xlink" width="200" height="200"><path d="M85.333 213.333A42.667 42.667 0 0 1 128 170.667h768a42.667 42.667 0 0 1 42.667 42.666v512A42.667 42.667 0 0 1 896 768H128a42.667 42.667 0 0 1-42.667-42.667v-512zM170.667 256v426.667h682.666V256H170.667z m128 576h426.666v85.333H298.667V832z" p-id="38645" fill="#e6720e"></path><path d="M417.835 375.168a42.667 42.667 0 0 1 60.33 0L576 473.003l85.333-85.334L721.664 448 606.165 563.499a42.667 42.667 0 0 1-60.33 0L448 465.664l-85.333 85.333-60.331-60.33 115.499-115.499z" fill="#e6720e" p-id="38646"></path></svg>