<?xml version="1.0" standalone="no"?>
<svg class="icon" viewBox="0 0 1024 1024" version="1.1" xmlns="http://www.w3.org/2000/svg" width="200" height="200">
  <path d="M202.7 128h469.3c82.5 0 149.3 66.9 149.3 149.3v362.7h-74.6V277.3c0-41.2-33.4-74.6-74.7-74.6H202.7c-41.2 0-74.7 33.4-74.7 74.6v469.4c0 41.2 33.4 74.6 74.7 74.6h362.6V896H202.7C120.2 896 53.3 829.1 53.3 746.7V277.3C53.3 194.9 120.2 128 202.7 128z" fill="#e6720e"/>
  <path d="M256 320h341.3v74.7H256V320zM256 490.7h298.7v74.6H256v-74.6zM256 661.3h213.3V736H256v-74.7z" fill="#e6720e"/>
  <path d="M723.2 675.2l-70.4-70.4-52.8 52.8 123.2 123.2 217.6-217.6-52.8-52.8-164.8 164.8z" fill="#e6720e"/>
</svg>
